# xmcd CD database file
#
# Track frame offsets:
#	150
#	22907
#	40385
#	62572
#	81302
#	96107
#	118582
#	141340
#	165807
#
# Disc length: 2397 seconds
#
# Revision: 9
# Processed by: cddbd v1.5.2PL0 Copyright (c) Steve Scherf et al.
# Submitted via: CDex 1.51
#
DISCID=6b095b09
DTITLE=Jeff Beck with Terry Bozzio and Tony Hymas - Jeff Beck's Guitar Shop
DYEAR=1989
DGENRE=Rock
TTITLE0=Guitar Shop
TTITLE1=Savoy
TTITLE2=Behind The Veil
TTITLE3=Big Block
TTITLE4=Where Were You
TTITLE5=Stand On It
TTITLE6=Day In The House
TTITLE7=Two Rivers
TTITLE8=Sling Shot
EXTD=YEAR: 1989
EXTT0=
EXTT1=
EXTT2=
EXTT3=
EXTT4=
EXTT5=
EXTT6=
EXTT7=
EXTT8=
PLAYORDER=
